<?xml version="1.0" encoding="utf-8"?>
<!-- Generator: Adobe Illustrator 16.0.0, SVG Export Plug-In . SVG Version: 6.00 Build 0)  -->
<!DOCTYPE svg PUBLIC "-//W3C//DTD SVG 1.1//EN" "http://www.w3.org/Graphics/SVG/1.1/DTD/svg11.dtd">
<svg version="1.1" id="Layer_1" xmlns="http://www.w3.org/2000/svg" xmlns:xlink="http://www.w3.org/1999/xlink" x="0px" y="0px"
	 width="458.73px" height="410.125px" viewBox="0 0 458.73 410.125" enable-background="new 0 0 458.73 410.125"
	 xml:space="preserve">
<g opacity="0.3">
	<rect x="396.598" y="408.89" fill="none" stroke="#FFFFFF" stroke-miterlimit="10" width="0.001" height="1.301"/>
	<polygon fill="none" stroke="#FFFFFF" stroke-miterlimit="10" points="397.945,410.125 396.884,408.956 396.315,410.125 	"/>
	<polygon fill="none" stroke="#FFFFFF" stroke-miterlimit="10" points="458.73,373.55 448.398,362.174 431.996,395.867 
		458.73,385.904 	"/>
	<polygon fill="none" stroke="#FFFFFF" stroke-miterlimit="10" points="431.996,395.867 425.055,410.125 425.056,410.125 	"/>
	<polygon fill="none" stroke="#FFFFFF" stroke-miterlimit="10" points="458.73,410.125 458.73,408.884 431.996,395.867 
		437.311,410.125 	"/>
	<polygon fill="none" stroke="#FFFFFF" stroke-miterlimit="10" points="458.73,385.904 431.996,395.867 458.73,408.884 	"/>
	<polygon fill="none" stroke="#FFFFFF" stroke-miterlimit="10" points="437.311,410.125 431.996,395.867 425.056,410.125 	"/>
	<polygon fill="none" stroke="#FFFFFF" stroke-miterlimit="10" points="397.946,410.125 397.945,410.125 404.806,417.681 	"/>
	<polygon fill="none" stroke="#FFFFFF" stroke-miterlimit="10" points="458.73,358.324 448.4,362.173 458.73,373.549 	"/>
	
		<rect x="445.881" y="367.86" transform="matrix(0.6723 0.7403 -0.7403 0.6723 420.9883 -215.218)" fill="none" stroke="#FFFFFF" stroke-miterlimit="10" width="15.366" height="0.002"/>
	<polygon fill="none" stroke="#FFFFFF" stroke-miterlimit="10" points="209.955,410.125 200.285,399.479 195.104,410.125 	"/>
	
		<rect x="191.772" y="404.8" transform="matrix(-0.4377 0.8991 -0.8991 -0.4377 648.1879 404.2118)" fill="none" stroke="#FFFFFF" stroke-miterlimit="10" width="11.84" height="0.005"/>
	<polygon fill="none" stroke="#FFFFFF" stroke-miterlimit="10" points="170.799,398.055 157.506,410.125 175.297,410.125 	"/>
	<polygon fill="none" stroke="#FFFFFF" stroke-miterlimit="10" points="195.101,410.125 200.28,399.479 170.799,398.055 
		175.297,410.125 	"/>
	<polygon fill="none" stroke="#FFFFFF" stroke-miterlimit="10" points="147.716,410.125 150.191,416.767 157.506,410.125 	"/>
	<polygon fill="none" stroke="#FFFFFF" stroke-miterlimit="10" points="298.582,404.216 298.58,404.22 298.586,404.22 	"/>
	<polygon fill="none" stroke="#FFFFFF" stroke-miterlimit="10" points="401.619,310.656 385.219,344.349 420.333,331.262 	"/>
	<polygon fill="none" stroke="#FFFFFF" stroke-miterlimit="10" points="115.959,410.125 120.701,415.349 123.244,410.125 	"/>
	<polygon fill="none" stroke="#FFFFFF" stroke-miterlimit="10" points="153.507,347.961 137.104,381.656 172.22,368.571 	"/>
	<polygon fill="none" stroke="#FFFFFF" stroke-miterlimit="10" points="188.622,334.875 172.22,368.571 201.713,369.992 	"/>
	<polygon fill="none" stroke="#FFFFFF" stroke-miterlimit="10" points="153.506,347.96 137.104,381.656 153.507,347.961 	"/>
	<polygon fill="none" stroke="#FFFFFF" stroke-miterlimit="10" points="298.587,404.221 295.711,410.125 303.949,410.125 	"/>
	<polygon fill="none" stroke="#FFFFFF" stroke-miterlimit="10" points="94.501,410.125 115.958,410.125 101.992,394.742 	"/>
	<polygon fill="none" stroke="#FFFFFF" stroke-miterlimit="10" points="406.357,212.361 421.716,229.272 406.358,212.361 	"/>
	<polygon fill="none" stroke="#FFFFFF" stroke-miterlimit="10" points="420.333,331.259 436.735,297.572 401.621,310.655 	"/>
	<polygon fill="none" stroke="#FFFFFF" stroke-miterlimit="10" points="115.958,410.125 120.701,415.349 115.959,410.125 	"/>
	
		<rect x="89.691" y="402.433" transform="matrix(0.4377 -0.8991 0.8991 0.4377 -306.5888 314.6064)" fill="none" stroke="#FFFFFF" stroke-miterlimit="10" width="17.11" height="0.001"/>
	<polygon fill="none" stroke="#FFFFFF" stroke-miterlimit="10" points="441.471,199.271 406.358,212.361 421.716,229.272 
		425.068,232.965 	"/>
	<polygon fill="none" stroke="#FFFFFF" stroke-miterlimit="10" points="394.691,147.758 428.387,164.159 429.811,134.666 	"/>
	<polygon fill="none" stroke="#FFFFFF" stroke-miterlimit="10" points="425.068,232.965 421.716,229.272 425.074,232.972 
		441.471,199.271 	"/>
	<polygon fill="none" stroke="#FFFFFF" stroke-miterlimit="10" points="411.099,114.067 394.691,147.758 429.811,134.666 	"/>
	<polygon fill="none" stroke="#FFFFFF" stroke-miterlimit="10" points="376.87,210.938 389.958,246.056 406.354,212.361 	"/>
	<polygon fill="none" stroke="#FFFFFF" stroke-miterlimit="10" points="411.094,114.062 411.093,114.064 411.097,114.064 	"/>
	<polygon fill="none" stroke="#FFFFFF" stroke-miterlimit="10" points="433.127,65.863 412.518,84.572 446.211,100.974 	"/>
	<polygon fill="none" stroke="#FFFFFF" stroke-miterlimit="10" points="356.264,229.65 389.958,246.056 376.87,210.938 	"/>
	<polygon fill="none" stroke="#FFFFFF" stroke-miterlimit="10" points="373.556,279.743 403.041,281.167 389.958,246.056 	"/>
	<polygon fill="none" stroke="#FFFFFF" stroke-miterlimit="10" points="401.621,310.655 436.735,297.572 403.041,281.167 	"/>
	<polygon fill="none" stroke="#FFFFFF" stroke-miterlimit="10" points="354.842,259.14 389.958,246.056 356.264,229.65 	"/>
	<polygon fill="none" stroke="#FFFFFF" stroke-miterlimit="10" points="412.518,84.572 411.1,114.064 446.211,100.974 	"/>
	<polygon fill="none" stroke="#FFFFFF" stroke-miterlimit="10" points="373.553,279.746 389.958,246.056 354.842,259.14 	"/>
	<polygon fill="none" stroke="#FFFFFF" stroke-miterlimit="10" points="458.73,107.07 446.211,100.974 458.73,134.569 	"/>
	<polygon fill="none" stroke="#FFFFFF" stroke-miterlimit="10" points="458.73,75.263 446.211,100.974 458.73,96.309 	"/>
	<polygon fill="none" stroke="#FFFFFF" stroke-miterlimit="10" points="458.73,96.309 446.211,100.974 458.73,107.07 	"/>
	<polygon fill="none" stroke="#FFFFFF" stroke-miterlimit="10" points="458.73,75.26 446.211,100.974 458.73,75.263 	"/>
	<rect x="460.671" y="66.837" fill="none" stroke="#FFFFFF" stroke-miterlimit="10" width="0.003" height="8.872"/>
	<polygon fill="none" stroke="#FFFFFF" stroke-miterlimit="10" points="446.211,100.974 458.73,75.26 458.73,67.097 433.127,65.863 
			"/>
	<polygon fill="none" stroke="#FFFFFF" stroke-miterlimit="10" points="462.613,67.285 462.614,67.286 462.615,67.285 
		458.73,67.097 458.73,75.26 	"/>
	<polygon fill="none" stroke="#FFFFFF" stroke-miterlimit="10" points="72.502,393.317 53.995,410.125 78.763,410.125 	"/>
	<polygon fill="none" stroke="#FFFFFF" stroke-miterlimit="10" points="458.73,147.879 458.73,136.067 429.811,134.666 
		428.387,164.159 457.877,165.578 	"/>
	<polygon fill="none" stroke="#FFFFFF" stroke-miterlimit="10" points="428.387,164.159 441.471,199.271 457.877,165.578 	"/>
	<polygon fill="none" stroke="#FFFFFF" stroke-miterlimit="10" points="458.73,166.518 457.877,165.578 441.471,199.271 
		458.73,192.841 	"/>
	<polygon fill="none" stroke="#FFFFFF" stroke-miterlimit="10" points="458.73,192.841 441.471,199.271 458.73,207.675 	"/>
	<polygon fill="none" stroke="#FFFFFF" stroke-miterlimit="10" points="458.73,165.26 458.73,147.879 457.877,165.578 	"/>
	<polygon fill="none" stroke="#FFFFFF" stroke-miterlimit="10" points="458.73,230.604 458.73,207.675 441.471,199.271 
		454.562,234.39 	"/>
	<polygon fill="none" stroke="#FFFFFF" stroke-miterlimit="10" points="453.137,263.878 458.73,270.037 458.73,270.036 	"/>
	<polygon fill="none" stroke="#FFFFFF" stroke-miterlimit="10" points="441.471,199.271 425.074,232.972 454.562,234.39 	"/>
	<polygon fill="none" stroke="#FFFFFF" stroke-miterlimit="10" points="458.73,261.793 453.137,263.878 458.73,270.036 	"/>
	<polygon fill="none" stroke="#FFFFFF" stroke-miterlimit="10" points="458.73,236.419 454.562,234.39 453.137,263.878 
		458.73,261.793 	"/>
	<polygon fill="none" stroke="#FFFFFF" stroke-miterlimit="10" points="458.73,166.518 458.73,165.26 457.877,165.578 	"/>
	<polygon fill="none" stroke="#FFFFFF" stroke-miterlimit="10" points="454.562,234.39 458.73,236.419 458.73,230.604 	"/>
	<rect x="200.28" y="399.476" fill="none" stroke="#FFFFFF" stroke-miterlimit="10" width="0.005" height="0.004"/>
	<rect x="205.121" y="397.611" fill="none" stroke="#FFFFFF" stroke-miterlimit="10" width="0.001" height="14.382"/>
	<polygon fill="none" stroke="#FFFFFF" stroke-miterlimit="10" points="200.288,399.479 200.285,399.476 200.285,399.479 	"/>
	<polygon fill="none" stroke="#FFFFFF" stroke-miterlimit="10" points="200.28,399.479 200.283,399.474 200.285,399.476 
		201.713,369.992 172.22,368.571 170.799,398.055 	"/>
	<polygon fill="none" stroke="#FFFFFF" stroke-miterlimit="10" points="147.716,410.125 123.244,410.125 120.701,415.349 
		150.191,416.767 	"/>
	<polygon fill="none" stroke="#FFFFFF" stroke-miterlimit="10" points="172.22,368.571 137.104,381.656 170.799,398.055 	"/>
	<polygon fill="none" stroke="#FFFFFF" stroke-miterlimit="10" points="157.506,410.125 170.799,398.055 137.104,381.656 
		147.716,410.125 	"/>
	<polygon fill="none" stroke="#FFFFFF" stroke-miterlimit="10" points="137.104,381.656 123.244,410.125 147.716,410.125 	"/>
	<polygon fill="none" stroke="#FFFFFF" stroke-miterlimit="10" points="396.313,410.125 396.883,408.955 396.884,408.956 
		396.885,408.955 367.393,407.533 368.358,410.125 	"/>
	<polygon fill="none" stroke="#FFFFFF" stroke-miterlimit="10" points="418.914,360.749 398.307,379.462 431.996,395.867 	"/>
	<polygon fill="none" stroke="#FFFFFF" stroke-miterlimit="10" points="448.397,362.174 418.914,360.749 431.996,395.867 	"/>
	<polygon fill="none" stroke="#FFFFFF" stroke-miterlimit="10" points="425.055,410.125 431.996,395.867 396.885,408.955 
		397.946,410.125 	"/>
	<polygon fill="none" stroke="#FFFFFF" stroke-miterlimit="10" points="448.398,362.174 448.397,362.174 431.996,395.867 	"/>
	<polygon fill="none" stroke="#FFFFFF" stroke-miterlimit="10" points="398.307,379.462 396.885,408.955 431.996,395.867 	"/>
	<polygon fill="none" stroke="#FFFFFF" stroke-miterlimit="10" points="458.73,324.601 449.826,332.688 458.73,337.022 	"/>
	<polygon fill="none" stroke="#FFFFFF" stroke-miterlimit="10" points="448.398,362.171 448.397,362.174 448.398,362.174 	"/>
	<polygon fill="none" stroke="#FFFFFF" stroke-miterlimit="10" points="458.73,358.324 458.73,337.022 449.826,332.688 
		448.398,362.171 448.4,362.173 	"/>
	<polygon fill="none" stroke="#FFFFFF" stroke-miterlimit="10" points="448.4,362.173 448.398,362.171 448.398,362.174 	"/>
	<rect x="397.415" y="408.75" fill="none" stroke="#FFFFFF" stroke-miterlimit="10" width="0.001" height="1.58"/>
	<polygon fill="none" stroke="#FFFFFF" stroke-miterlimit="10" points="367.393,407.533 364.538,410.125 368.358,410.125 	"/>
	<polygon fill="none" stroke="#FFFFFF" stroke-miterlimit="10" points="425.074,232.972 423.65,262.458 453.137,263.878 
		454.562,234.39 	"/>
	<polygon fill="none" stroke="#FFFFFF" stroke-miterlimit="10" points="458.73,289.375 436.735,297.572 458.73,308.28 	"/>
	<polygon fill="none" stroke="#FFFFFF" stroke-miterlimit="10" points="458.73,270.037 453.137,263.878 436.735,297.572 
		458.73,289.375 	"/>
	<polygon fill="none" stroke="#FFFFFF" stroke-miterlimit="10" points="458.73,324.601 458.73,308.28 436.735,297.572 
		449.826,332.688 	"/>
	<polygon fill="none" stroke="#FFFFFF" stroke-miterlimit="10" points="448.397,362.174 448.398,362.171 449.826,332.688 
		420.333,331.262 418.914,360.749 	"/>
	<polygon fill="none" stroke="#FFFFFF" stroke-miterlimit="10" points="436.735,297.572 420.333,331.262 449.826,332.688 	"/>
	<polygon fill="none" stroke="#FFFFFF" stroke-miterlimit="10" points="389.958,246.056 403.041,281.167 423.65,262.458 	"/>
	<polygon fill="none" stroke="#FFFFFF" stroke-miterlimit="10" points="425.074,232.972 389.958,246.056 423.65,262.458 	"/>
	<polygon fill="none" stroke="#FFFFFF" stroke-miterlimit="10" points="423.65,262.458 436.735,297.572 453.137,263.878 	"/>
	<polygon fill="none" stroke="#FFFFFF" stroke-miterlimit="10" points="403.041,281.167 436.735,297.572 423.65,262.458 	"/>
	<polygon fill="none" stroke="#FFFFFF" stroke-miterlimit="10" points="385.219,344.349 368.814,378.046 398.307,379.462 	"/>
	<polygon fill="none" stroke="#FFFFFF" stroke-miterlimit="10" points="340.779,410.125 333.701,391.131 324.454,410.125 	"/>
	<polygon fill="none" stroke="#FFFFFF" stroke-miterlimit="10" points="364.538,410.125 367.393,407.533 333.701,391.131 
		340.779,410.125 	"/>
	<polygon fill="none" stroke="#FFFFFF" stroke-miterlimit="10" points="368.814,378.046 333.701,391.131 367.393,407.533 	"/>
	<polygon fill="none" stroke="#FFFFFF" stroke-miterlimit="10" points="324.454,410.125 333.701,391.131 298.587,404.22 
		303.95,410.125 	"/>
	<polygon fill="none" stroke="#FFFFFF" stroke-miterlimit="10" points="421.716,229.272 406.357,212.361 389.958,246.056 
		425.074,232.972 	"/>
	<polygon fill="none" stroke="#FFFFFF" stroke-miterlimit="10" points="418.914,360.749 385.219,344.349 398.307,379.462 	"/>
	<polygon fill="none" stroke="#FFFFFF" stroke-miterlimit="10" points="396.885,408.955 398.307,379.462 368.814,378.046 
		367.393,407.533 	"/>
	<polygon fill="none" stroke="#FFFFFF" stroke-miterlimit="10" points="420.333,331.262 385.219,344.349 418.914,360.749 	"/>
	<polygon fill="none" stroke="#FFFFFF" stroke-miterlimit="10" points="406.354,212.361 389.958,246.056 406.357,212.361 	"/>
	<polygon fill="none" stroke="#FFFFFF" stroke-miterlimit="10" points="411.099,114.067 411.097,114.064 411.093,114.064 
		394.691,147.758 	"/>
	<polygon fill="none" stroke="#FFFFFF" stroke-miterlimit="10" points="411.1,114.064 411.097,114.064 411.099,114.067 	"/>
	<polygon fill="none" stroke="#FFFFFF" stroke-miterlimit="10" points="411.093,114.064 381.609,112.642 394.691,147.758 	"/>
	<polygon fill="none" stroke="#FFFFFF" stroke-miterlimit="10" points="429.811,134.666 411.1,114.064 411.099,114.067 	"/>
	<polygon fill="none" stroke="#FFFFFF" stroke-miterlimit="10" points="458.73,147.879 459.299,136.094 458.73,136.067 	"/>
	<polygon fill="none" stroke="#FFFFFF" stroke-miterlimit="10" points="459.299,136.094 458.73,134.569 458.73,136.067 	"/>
	<polygon fill="none" stroke="#FFFFFF" stroke-miterlimit="10" points="381.609,112.642 361,131.353 394.691,147.758 	"/>
	<polygon fill="none" stroke="#FFFFFF" stroke-miterlimit="10" points="458.73,136.067 458.73,134.569 446.211,100.974 
		429.811,134.666 	"/>
	<polygon fill="none" stroke="#FFFFFF" stroke-miterlimit="10" points="446.211,100.974 411.1,114.064 429.811,134.666 	"/>
	<rect x="301.268" y="403.184" fill="none" stroke="#FFFFFF" stroke-miterlimit="10" width="0.001" height="7.977"/>
	<polygon fill="none" stroke="#FFFFFF" stroke-miterlimit="10" points="428.387,164.159 407.779,182.869 441.471,199.271 	"/>
	<polygon fill="none" stroke="#FFFFFF" stroke-miterlimit="10" points="406.358,212.361 406.357,212.359 406.357,212.361 	"/>
	<rect x="406.354" y="212.358" fill="none" stroke="#FFFFFF" stroke-miterlimit="10" width="0.003" height="0.004"/>
	<polygon fill="none" stroke="#FFFFFF" stroke-miterlimit="10" points="378.289,181.45 407.779,182.869 394.691,147.758 	"/>
	<polygon fill="none" stroke="#FFFFFF" stroke-miterlimit="10" points="359.578,160.843 378.289,181.45 394.691,147.758 	"/>
	<polygon fill="none" stroke="#FFFFFF" stroke-miterlimit="10" points="361,131.353 359.578,160.843 394.691,147.758 	"/>
	<polygon fill="none" stroke="#FFFFFF" stroke-miterlimit="10" points="394.691,147.758 407.779,182.869 428.387,164.159 	"/>
	<polygon fill="none" stroke="#FFFFFF" stroke-miterlimit="10" points="441.471,199.271 407.779,182.869 406.357,212.359 
		406.358,212.361 	"/>
	<polygon fill="none" stroke="#FFFFFF" stroke-miterlimit="10" points="298.587,404.22 298.586,404.22 298.587,404.221 	"/>
	<polygon fill="none" stroke="#FFFFFF" stroke-miterlimit="10" points="123.244,410.125 137.104,381.656 101.992,394.741 
		115.959,410.125 	"/>
	<polygon fill="none" stroke="#FFFFFF" stroke-miterlimit="10" points="103.414,365.254 101.992,394.741 137.104,381.656 	"/>
	<polygon fill="none" stroke="#FFFFFF" stroke-miterlimit="10" points="124.021,346.54 103.414,365.254 137.104,381.656 	"/>
	<polygon fill="none" stroke="#FFFFFF" stroke-miterlimit="10" points="101.99,394.741 101.992,394.742 101.992,394.741 
		72.502,393.317 78.763,410.125 94.5,410.125 	"/>
	<rect x="108.975" y="392.044" fill="none" stroke="#FFFFFF" stroke-miterlimit="10" width="0.001" height="20.778"/>
	<polygon fill="none" stroke="#FFFFFF" stroke-miterlimit="10" points="209.957,410.125 223.849,410.125 235.404,386.394 
		200.288,399.479 	"/>
	<polygon fill="none" stroke="#FFFFFF" stroke-miterlimit="10" points="200.285,399.476 200.288,399.479 235.404,386.394 
		201.713,369.992 	"/>
	<polygon fill="none" stroke="#FFFFFF" stroke-miterlimit="10" points="244.25,410.125 235.404,386.394 223.849,410.125 	"/>
	<polygon fill="none" stroke="#FFFFFF" stroke-miterlimit="10" points="153.506,347.96 153.507,347.961 153.508,347.96 
		124.021,346.54 137.104,381.656 	"/>
	<polygon fill="none" stroke="#FFFFFF" stroke-miterlimit="10" points="295.711,410.125 298.587,404.221 298.586,404.22 
		298.58,404.22 295.706,410.125 	"/>
	<polygon fill="none" stroke="#FFFFFF" stroke-miterlimit="10" points="261.027,410.125 269.097,402.798 235.404,386.394 
		244.25,410.125 	"/>
	<polygon fill="none" stroke="#FFFFFF" stroke-miterlimit="10" points="295.706,410.125 298.58,404.22 269.097,402.798 
		271.827,410.125 	"/>
	<polygon fill="none" stroke="#FFFFFF" stroke-miterlimit="10" points="201.713,369.992 222.316,351.277 188.622,334.875 	"/>
	<polygon fill="none" stroke="#FFFFFF" stroke-miterlimit="10" points="271.827,410.125 269.097,402.798 261.027,410.125 	"/>
	<polygon fill="none" stroke="#FFFFFF" stroke-miterlimit="10" points="235.404,386.394 222.316,351.277 201.713,369.992 	"/>
	<polygon fill="none" stroke="#FFFFFF" stroke-miterlimit="10" points="175.537,299.761 154.93,318.468 188.622,334.875 	"/>
	<polygon fill="none" stroke="#FFFFFF" stroke-miterlimit="10" points="188.622,334.875 153.508,347.96 172.217,368.567 	"/>
	<polygon fill="none" stroke="#FFFFFF" stroke-miterlimit="10" points="154.93,318.468 153.508,347.96 188.622,334.875 	"/>
	<polygon fill="none" stroke="#FFFFFF" stroke-miterlimit="10" points="172.22,368.571 188.622,334.875 172.217,368.567 
		153.508,347.96 153.507,347.961 	"/>
	<polygon fill="none" stroke="#FFFFFF" stroke-miterlimit="10" points="188.622,334.875 205.026,301.184 205.024,301.183 	"/>
	<polygon fill="none" stroke="#FFFFFF" stroke-miterlimit="10" points="205.024,301.183 205.026,301.184 205.027,301.181 
		175.537,299.761 188.622,334.875 	"/>
	<polygon fill="none" stroke="#FFFFFF" stroke-miterlimit="10" points="223.736,321.786 205.026,301.184 188.622,334.875 	"/>
	<polygon fill="none" stroke="#FFFFFF" stroke-miterlimit="10" points="222.316,351.277 223.736,321.786 188.622,334.875 	"/>
</g>
</svg>
