<?xml version="1.0" encoding="iso-8859-1"?>
<!-- Generator: Adobe Illustrator 19.0.0, SVG Export Plug-In . SVG Version: 6.00 Build 0)  -->
<svg version="1.1" id="Capa_1" xmlns="http://www.w3.org/2000/svg" xmlns:xlink="http://www.w3.org/1999/xlink" x="0px" y="0px"
	 viewBox="0 0 480 480" style="enable-background:new 0 0 480 480;" xml:space="preserve">
<g>
	<path style="fill:#ABD3F3;" d="M40,32h32v32H40V32z"/>
	<path style="fill:#ABD3F3;" d="M104,32h32v32h-32V32z"/>
	<path style="fill:#ABD3F3;" d="M168,32h32v32h-32V32z"/>
	<path style="fill:#ABD3F3;" d="M168,96h32v32h-32V96z"/>
	<path style="fill:#ABD3F3;" d="M40,96h32v32H40V96z"/>
	<path style="fill:#ABD3F3;" d="M104,96h32v32h-32V96z"/>
	<path style="fill:#ABD3F3;" d="M40,160h32v32H40V160z"/>
	<path style="fill:#ABD3F3;" d="M104,160h32v32h-32V160z"/>
	<path style="fill:#ABD3F3;" d="M40,224h32v32H40V224z"/>
	<path style="fill:#ABD3F3;" d="M104,224h32v32h-32V224z"/>
	<path style="fill:#ABD3F3;" d="M40,288h32v32H40V288z"/>
	<path style="fill:#ABD3F3;" d="M104,288h32v32h-32V288z"/>
	<path style="fill:#ABD3F3;" d="M40,352h32v32H40V352z"/>
	<path style="fill:#ABD3F3;" d="M104,352h32v32h-32V352z"/>
	<path style="fill:#ABD3F3;" d="M192,160h32v32h-32V160z"/>
	<path style="fill:#ABD3F3;" d="M256,160h32v32h-32V160z"/>
	<path style="fill:#ABD3F3;" d="M320,160h32v32h-32V160z"/>
	<path style="fill:#ABD3F3;" d="M192,224h32v32h-32V224z"/>
	<path style="fill:#ABD3F3;" d="M256,224h32v32h-32V224z"/>
	<path style="fill:#ABD3F3;" d="M320,224h32v32h-32V224z"/>
	<path style="fill:#ABD3F3;" d="M192,288h32v32h-32V288z"/>
	<path style="fill:#ABD3F3;" d="M256,288h32v32h-32V288z"/>
	<path style="fill:#ABD3F3;" d="M192,352h32v32h-32V352z"/>
	<path style="fill:#ABD3F3;" d="M256,352h32v32h-32V352z"/>
</g>
<g>
	<path style="fill:#E6E7E8;" d="M344,288h32v32h-32V288z"/>
	<path style="fill:#E6E7E8;" d="M408,288h32v32h-32V288z"/>
	<path style="fill:#E6E7E8;" d="M344,352h32v32h-32V352z"/>
	<path style="fill:#E6E7E8;" d="M408,352h32v32h-32V352z"/>
</g>
<path style="fill:#FBB040;" d="M224,0H16c-4.418,0-8,3.582-8,8v472h152V152h72V8C232,3.582,228.418,0,224,0z M72,384H40v-32h32V384z
	 M72,320H40v-32h32V320z M72,256H40v-32h32V256z M72,192H40v-32h32V192z M72,128H40V96h32V128z M72,64H40V32h32V64z M136,384h-32
	v-32h32V384z M136,320h-32v-32h32V320z M136,256h-32v-32h32V256z M136,192h-32v-32h32V192z M136,128h-32V96h32V128z M136,64h-32V32
	h32V64z M200,120h-32V96h32V120z M200,64h-32V32h32V64z"/>
<path style="fill:#FF9811;" d="M376,128H168c-4.418,0-8,3.582-8,8v344h152V288h72V136C384,131.582,380.418,128,376,128z M224,384
	h-32v-32h32V384z M224,320h-32v-32h32V320z M224,256h-32v-32h32V256z M224,192h-32v-32h32V192z M288,384h-32v-32h32V384z M288,320
	h-32v-32h32V320z M288,256h-32v-32h32V256z M288,192h-32v-32h32V192z M352,248h-32v-24h32V248z M352,192h-32v-32h32V192z"/>
<path style="fill:#FF5023;" d="M464,256H320c-4.418,0-8,3.582-8,8v216h160V264C472,259.582,468.418,256,464,256z M376,384h-32v-32
	h32V384z M376,320h-32v-32h32V320z M440,384h-32v-32h32V384z M440,320h-32v-32h32V320z"/>
<g>
</g>
<g>
</g>
<g>
</g>
<g>
</g>
<g>
</g>
<g>
</g>
<g>
</g>
<g>
</g>
<g>
</g>
<g>
</g>
<g>
</g>
<g>
</g>
<g>
</g>
<g>
</g>
<g>
</g>
</svg>
